<svg id="Layer_1" data-name="Layer 1" xmlns="http://www.w3.org/2000/svg" viewBox="0 0 1000 1000"><defs><style>.cls-1{fill:#fff;}.cls-2{fill:#fdc831;}</style></defs><path class="cls-1" d="M412,265.27v10.29c-16.06,7.78-33.62,26.6-54.7,68.24l-47.67,94.59V575.13c0,37.38,5.77,42.64,36.38,44.15v10.29c-19.82-1-56.45-1.51-88.31-1.51-34.87,0-70.25.5-88.81,1.51V619.28c31.36-1.51,36.37-6.77,36.37-44.15V480.54L110.18,304.92c-11.8-21.58-22.58-28.86-29.61-28.86V265.27c21.08,2,43.15,3,70.75,3,34.88,0,78.78-1.51,113.15-3v10.79c-21.57,0-41.39.25-41.39,11.8a18.72,18.72,0,0,0,2.25,7.77l73.27,141,23.33-46.41c17.06-34.12,24.33-59,24.33-76.52,0-26.85-16.55-37.14-41.14-38.14V265.27c25.59,1,43.65,1.51,67.24,1.51C385.65,266.78,401.71,266.28,412,265.27Z"/><path class="cls-2" d="M417.75,418.35c.59-11.48-.71-21.89-.35-32.89.35-9.12,8.87-11.72,16.8-9.12,18.1,5.8,37.74,3.31,56.43,2.73,16.8-.48,20.82-2.61,36.21-4.74,7.33-1.06,18-3.31,18,5.8-4,12.66-22.24,16.45-33.72,17-19.76,1.3-37.51,7.92-57.85,10.06,0,4.25-.13,8.51-.13,12.77-.35,25.08,2.25,49,1.78,73.23-.24,11.6-6.63,77.5-6,80.57,9.1,2.84,100.56-40.46,117.72-26.38,9.46,12-33,25.67-39.52,27.56C508,580.55,489.92,586.35,471,592.26c-11.59,3.67-15.15,3.67-26.26,6-2,17.74-3.2,42.11-1.78,59.62,1.89,23.43,20.94,43.42,44.6,43.42,35-.12,41.17-29.46,51.23-31.7,16.8-3.79,12.07,24.13,4.85,31.58-19,19.76-54.07,27.69-80.57,21.77-69.21-15.5-58.8-63.29-55.49-118.9L409,591.67c5.56-45.08,7-88.14,8.64-133.34C418.22,444.61,417.16,431.24,417.75,418.35Z"/><path class="cls-2" d="M743.66,551.8c.47,9.35-4.14,28.51-5.09,39.87-.47,5.68-.83,11.48-1.3,17.16-4.61,68-8,93.94-29,159.36-14.55,45.43-44.49,81.52-90.63,42.95-4.85-4.27-3.79-10.42.24-11.95,8.28-3,5.68,7.21,14.43,4.49,18.46-8.75,29-28.16,37.15-46.14C675,745,699.3,674.73,699.3,664c-7.1-4.38-58.56,87.19-101.75,27.8-30.52-41.88-8.28-115.23,18.1-154.39,15.85-21.42,45.55-24.73,70.28-21.54,34.78,7.22,36.79,27.69,23.3,22-19.28-8.16-24.6-13.25-44.84,0-19,20.11-31.47,50.87-38,77.37-3.79,15-17.28,95.48,20.46,65.19,45.44-36.55,55.49-74.29,78.44-124.46C730.41,545.18,741.18,545.18,743.66,551.8Z"/><path class="cls-2" d="M919.39,551.8c.48,9.35-4.14,28.51-5.08,39.87-.47,5.68-.83,11.48-1.3,17.16-4.62,68-8,93.94-29,159.36-14.55,45.43-44.49,81.52-90.62,42.95-4.86-4.27-3.79-10.42.23-11.95,8.28-3,5.68,7.21,14.43,4.49,18.46-8.75,29-28.16,37.16-46.14C850.78,745,875,674.73,875,664c-7.09-4.38-58.56,87.19-101.75,27.8-30.52-41.88-8.28-115.23,18.11-154.39,15.85-21.42,45.55-24.73,70.27-21.54,34.78,7.22,36.8,27.69,23.31,22-19.29-8.16-24.61-13.25-44.84,0-19,20.11-31.47,50.87-38,77.37-3.79,15-17.27,95.48,20.47,65.19,45.43-36.55,55.49-74.29,78.44-124.46C906.15,545.18,916.91,545.18,919.39,551.8Z"/><path class="cls-1" d="M697.76,191.22l28.09,2.41c7.24.61,14.47,1.48,21.71,1.69a62.28,62.28,0,0,0,12.79-1.38,12,12,0,0,0,7.85-5.12c5.81-8.4,14.17-12.71,23.88-14.76,14.21-3,28.15-1.27,42,2.56a84.49,84.49,0,0,1,28.8,14.59c8.77,6.71,14.37,15.51,15.89,26.55a44.38,44.38,0,0,1-5.21,27.83c-2.23,4.1-5,7.9-7.36,11.94a111.69,111.69,0,0,0-6.44,12c-3.77,8.74-2.25,16.76,3.87,24.07,3.71,4.43,7.33,9,10.64,13.71,5.76,8.21,10.34,17,12.54,26.93a37.22,37.22,0,0,1,.05,16.83c-2.79,11.8-17.4,25.74-35.56,21.43-5.74-1.36-11.48-2.78-17.17-4.34-17.59-4.81-33-.66-46.81,10.93-4,3.41-8.1,6.83-12.43,9.86a43.41,43.41,0,0,1-22,7.91,45,45,0,0,1-17.81-2.37c-5-1.69-9.88-3.76-14.83-5.63-3.21-1.22-6.43-2.47-9.7-3.53a26.49,26.49,0,0,0-16-.14,149.36,149.36,0,0,1-17,3.49c-8.82,1.45-16.5-1.48-23.37-6.84a19.86,19.86,0,0,1-6.39-9.76c-1.44-4.31-2.49-8.75-3.83-13.09a90.82,90.82,0,0,0-3.27-9.4,26.88,26.88,0,0,0-11.28-12.76,122.73,122.73,0,0,1-15-10.13,55.52,55.52,0,0,1-9.79-10.46c-5.67-7.83-6.47-16.54-3.21-25.63a49.47,49.47,0,0,1,8.59-15c5.2-6.23,10.71-12.21,16.07-18.31,3.34-3.79,6.74-7.52,9.95-11.41a24.47,24.47,0,0,0,5.33-11.59,74.27,74.27,0,0,1,3.28-12.07c5.8-16.1,17.37-25.66,34-28.86C685.17,192.16,691.72,191.88,697.76,191.22Zm5.52,8.2,0,.67c-3.69,0-7.4-.17-11.07,0a58.19,58.19,0,0,0-8.39,1.26c-14.5,3-24.64,11.32-29.63,25.4-1.44,4-2.16,8.32-3.41,12.43a41.71,41.71,0,0,1-3.26,8.54,50.37,50.37,0,0,1-6.13,8.28c-6.76,7.66-13.77,15.11-20.49,22.8a52.78,52.78,0,0,0-9.82,16c-2.9,7.61-2,14.81,2.73,21.36A38.43,38.43,0,0,0,621,324a141.05,141.05,0,0,0,14.93,10.15,34.38,34.38,0,0,1,15.33,18.73c1.52,4.27,2.46,8.75,3.88,13.07,1.22,3.72,2.64,7.39,4.17,11a5.25,5.25,0,0,0,4.9,3.37c3.06.1,6.19.6,9.17.14,5.69-.88,11.33-2.19,16.94-3.56,4.25-1.05,8.51-1.64,12.77-.54,4.51,1.15,9,2.52,13.37,4.08,5.21,1.85,10.26,4.16,15.48,6A39.66,39.66,0,0,0,749,388.65c8.11-.78,15.14-4.11,21.53-8.95,3-2.3,5.88-4.85,8.8-7.31C794.48,359.6,811.55,355,831,360.13c5.59,1.48,11.17,3,16.81,4.24,13.08,2.84,26-4.79,29.43-17.18a29.24,29.24,0,0,0,0-14.25A65.11,65.11,0,0,0,867,310.17c-3.68-5.37-7.69-10.54-11.85-15.56C848,286,846.08,276.5,850,266a66.09,66.09,0,0,1,4.39-9.33c2.06-3.63,4.6-7,6.69-10.61a74.06,74.06,0,0,0,5.72-11.13c8.28-22.36-4.06-40.26-19.91-46.72-14.59-6-29.65-9-45.45-6.83-10.11,1.36-19,5-25,13.88a15,15,0,0,1-9,6.13c-4.15,1-8.45,2.07-12.67,2-8.48-.15-16.94-1-25.4-1.66C720.67,201,712,200.19,703.28,199.42Z"/><path class="cls-2" d="M746.67,238.42c18.79.77,36.63,8.82,49.07,26.68,12.7,18.24,10.29,42.8-7.36,57.71-20.13,17-42.76,18.43-66.33,8.14a54.86,54.86,0,0,1-26.35-23.38,43.66,43.66,0,0,1,10.67-56.21C717.35,242.47,730,238.54,746.67,238.42Zm44.46,53.92c-.79-13.49-7.4-24.88-18-34.21a4.85,4.85,0,0,0-1.58-.93,3.1,3.1,0,0,0-3.67.94,2.66,2.66,0,0,0,.08,3.41c.55.82,1.2,1.57,1.76,2.38,3,4.22,6.2,8.29,8.79,12.73,4.06,7,6.16,14.48,4.25,22.65a32.1,32.1,0,0,1-8.32,15c-2.29,2.4-4.79,4.61-7.22,6.86-1.12,1-1.64,2.15-.82,3.59a3,3,0,0,0,3.78,1.48,6,6,0,0,0,2.25-1.21c3.58-3.18,7.46-6.1,10.56-9.7C788.39,309.06,790.81,301.48,791.13,292.34Z"/><path class="cls-1" d="M853.43,244.37c0-2.26-.1-4.29,0-6.3.23-3.8.61-7.6.89-11.4.58-7.93-2.21-14.69-7.21-20.68-5.11-6.14-11.47-10.71-18.34-14.65-1-.55-1.9-1.12-2.83-1.69-.08-.05-.09-.21-.13-.32,7.74-1.46,22.57,7.65,28.85,17.35S860.34,232.3,853.43,244.37Z"/><path class="cls-1" d="M660.86,254.2c-4.42-8.66-1.19-27.18,5.9-35.46,7.73-9,24.71-14.92,34.55-11.71-1.35.42-2.37.76-3.4,1.05a73.43,73.43,0,0,0-18.66,7.73c-8.52,5.18-14.25,12.25-15.63,22.45C662.91,243.48,661.84,248.64,660.86,254.2Z"/><path class="cls-1" d="M651.13,335c.71.93,1.48,1.82,2.12,2.78,2.06,3.06,4.15,6.1,6.08,9.23,4.68,7.58,11.69,11.22,20.25,12.59,6.78,1.08,13.47.55,20.17-.43.59-.08,1.18-.2,2-.35-5,5.57-20.24,7.7-30.12,4.13-12.93-4.67-17.73-15.58-21.13-27.46Z"/><path class="cls-1" d="M843.66,308.45c19.91,4.62,26.65,28.51,12.46,45.14.44-2,.68-3.34,1-4.63.67-2.61,1.3-5.24,2.12-7.81,2.09-6.55.79-12.59-2.61-18.34a49.84,49.84,0,0,0-10.3-11.94C845.43,310.08,844.55,309.26,843.66,308.45Z"/><path class="cls-1" d="M760.44,229.58A37.2,37.2,0,0,1,780.83,231c10,3.79,16.11,12,16.14,21.62a11.6,11.6,0,0,1-.22,1.57c-.68-.95-1.17-1.56-1.57-2.22-.64-1-1.21-2.14-1.8-3.22a31.79,31.79,0,0,0-20.9-16.25c-3.45-.88-6.94-1.6-10.41-2.42C761.52,230,761,229.76,760.44,229.58Z"/></svg>