<svg id="Layer_1" data-name="Layer 1" xmlns="http://www.w3.org/2000/svg" viewBox="0 0 884.5 382.57"><defs><style>.cls-1{fill:#fff;}.cls-2{fill:#fdc831;}</style></defs><path class="cls-1" d="M146.35,81.55v4c-6.23,3-13,10.33-21.23,26.49l-18.51,36.72v53.08c0,14.52,2.24,16.56,14.13,17.15v4c-7.7-.39-21.92-.59-34.29-.59-13.54,0-27.27.2-34.48.59v-4c12.18-.59,14.13-2.63,14.13-17.15V165.12L29.18,96.94c-4.57-8.38-8.76-11.2-11.49-11.2V81.55c8.18.78,16.75,1.17,27.47,1.17,13.53,0,30.58-.59,43.92-1.17v4.19c-8.37,0-16.07.09-16.07,4.57a7.18,7.18,0,0,0,.88,3l28.44,54.74,9.06-18c6.62-13.24,9.44-22.89,9.44-29.7,0-10.43-6.42-14.42-16-14.81v-4c9.94.39,17,.58,26.1.58C136.13,82.13,142.36,81.94,146.35,81.55Z"/><path class="cls-1" d="M220.57,190.63,224,191.9c-5.06,16.07-18,33.89-41.68,33.89-25.62,0-46.17-14.22-46.17-54.44,0-38.38,22.4-54.74,51.33-54.74,23.28,0,37.69,12.57,37.69,44.71H173.63c-.2,2.33-.2,4.77-.2,7.2,0,28.15,12.18,35.46,23,35.46C201.78,204,211.81,202.81,220.57,190.63ZM173,157.52H196c.19-19.48-2.63-36.23-10-36.23C179,121.29,174.31,131.12,173,157.52Z"/><path class="cls-1" d="M317.1,126.64c5.55,5.75,6.52,14.13,6.52,28V208c0,6.43.88,8.57,3,8.57,2.44,0,4.39-1.56,6.24-2.92l1.95,3.41c-6.34,5.35-14.52,7.3-25.91,7.3-15,0-20.36-7.11-20.55-15.09-5.55,9.15-16.17,15.09-28.54,15.09-16,0-25.13-9.15-25.13-22.89,0-13.53,7.79-22.4,25.32-28.14,15.59-5.55,27.76-9.55,27.76-18.51V137c0-6.14-2-16.37-14.8-16.37A20.79,20.79,0,0,0,262.46,124c8.57,3.22,13.34,9,13.34,18,0,9.35-7.59,16.75-19.18,16.75-9.94,0-16.37-7.59-16.37-17.43,0-8.38,5.26-14.51,12.37-18.31,8.18-4.19,18-6.43,31.95-6.43S309.5,118.66,317.1,126.64ZM287.78,163c-1.65,2.73-5,5.94-7.79,8.77-5.94,5.74-9.74,12.76-9.74,22.5,0,10.42,4.38,14.12,10.13,14.12a9.29,9.29,0,0,0,7.4-3.31Z"/><path class="cls-1" d="M416.74,195c15.78,0,29.32,5.65,29.32,23.37,0,20.16-18.7,42.08-59,42.08-36.72,0-46.85-8.77-46.85-16.56,0-14.51,24.74-5.94,32.82-15.78h-6.53c-8,0-23.86-3.21-23.86-20.74,0-13.06,6.82-20.75,25.81-29.81-14.7-4.48-24.25-13.93-24.25-29,0-21.92,20-31.95,46.85-31.95a79.6,79.6,0,0,1,12,.78c-.1-1.36-.2-2.73-.2-4.09,0-14.8,6.63-26.39,22.5-26.39,9.45,0,17.24,4.77,17.24,13.34,0,7.6-7.21,13-16.36,13-9.45,0-14.42-3.8-17.83-10.42A33.09,33.09,0,0,0,407,113.3a38.68,38.68,0,0,0,.29,4.68c18.31,3.5,30.59,13.34,30.59,30.58,0,21.91-19.87,31.94-46.85,31.94a88.44,88.44,0,0,1-18.9-1.94c-5,3.31-7.79,5.65-7.79,9.93,0,4.58,2.73,6.53,7.11,6.53Zm1.66,39.54c0-4-2.24-6.43-9.16-6.43H377c-2,4.38-2.53,10.62-2.53,13,0,10,6,16,18,16C408,257.06,418.4,247.9,418.4,234.56Zm-37.5-86c0,21.33,3.8,28.34,10.13,28.34s10.22-7,10.22-28.34-3.79-28.35-10.22-28.35S380.9,127.23,380.9,148.56Z"/><path class="cls-1" d="M538.49,190.63l3.41,1.27c-5.06,16.07-18,33.89-41.69,33.89-25.61,0-46.16-14.22-46.16-54.44,0-38.38,22.4-54.74,51.33-54.74,23.28,0,37.69,12.57,37.69,44.71H491.55c-.2,2.33-.2,4.77-.2,7.2,0,28.15,12.18,35.46,23,35.46C519.69,204,529.73,202.81,538.49,190.63Zm-47.62-33.11H514c.19-19.48-2.63-36.23-10-36.23C496.9,121.29,492.23,131.12,490.87,157.52Z"/><path class="cls-1" d="M641.64,136.77c0,12-7.4,19.58-18.31,19.58-11.79,0-17.82-5.75-17.82-14.32,0-9.06,4.18-14.61,10.22-18.6a14.75,14.75,0,0,0-6.43,1.36,19.92,19.92,0,0,0-11.78,17.83v59.8c0,12.76,5.06,16.36,17.14,16.36V223c-6.13-.2-19.48-.78-32.24-.78-12,0-25.81.58-31.94.78v-4.19c8.18,0,11.2-3.21,11.2-14.32v-63.3c0-12-2.83-17.54-11.2-17.54v-4.18c4.19.39,8.37.58,12.37.58,13.34,0,24.73-.78,34.67-2.73v14.32c5.26-10.13,14.22-15,25.81-15C637.65,116.61,641.64,127.62,641.64,136.77Z"/><path class="cls-1" d="M693.46,204.46c0,11.11,3,14.32,11.2,14.32V223c-5.36-.2-17.14-.78-28.34-.78s-24.16.58-29.9.78v-4.19c8.18,0,11.2-3.21,11.2-14.32v-63.3c0-12-2.83-17.54-11.2-17.54v-4.18c4.19.39,8.37.58,12.37.58,13.34,0,24.74-.78,34.67-2.73Z"/><path class="cls-1" d="M779.27,122.07a7.45,7.45,0,0,0,3.6,1.16c2.54,0,4.29-2,5-6.42h4c-.58,7.79-.77,17.82-.77,35.94h-4c-1.75-14.71-8.18-31.27-24.54-31.27-6.53,0-11.79,4.19-11.79,11.1,0,12,12.57,19.39,24,28.74,12.18,10,21.53,18.4,21.53,33.7,0,18.21-18.12,30.77-40.23,30.77-9.45,0-16.36-2.43-20.55-5.06-4.19-2.14-7-3.31-10-3.31-2.73,0-4.58,3.11-5.55,6.91h-4c.58-8.57.77-19.67.77-39.83h4c2.43,21.13,11.78,36.23,26.29,36.23,6.24,0,11.59-3.31,11.59-10.91,0-11.78-8-18.41-18.5-27.95-12-11-23.38-20.75-23.38-36.53,0-17.72,17.73-28.73,37.5-28.73C765.73,116.61,775.28,119.83,779.27,122.07Z"/><path class="cls-1" d="M872.09,119.63v4H852.52v82.6c0,5.16,1.56,7.2,6,7.2,2.72,0,7.11-1.46,10.71-5.84l3,2.43c-5.55,9.55-14.61,15.78-28.34,15.78-8.77,0-16-2.24-20.55-6.81-5.75-5.75-6.82-13.93-6.82-27.76v-67.6h-15.1v-4h15.1V95.87c14.22,0,25.42-2.54,35.94-8.77v32.53Z"/><path class="cls-2" d="M671.22,206.92c.23-4.46-.27-8.5-.14-12.77.14-3.54,3.45-4.55,6.53-3.54,7,2.25,14.65,1.28,21.9,1.06,6.53-.19,8.09-1,14.06-1.84,2.85-.41,7-1.29,7,2.25-1.56,4.91-8.63,6.38-13.09,6.61-7.67.51-14.56,3.08-22.46,3.91,0,1.65,0,3.3,0,5-.13,9.73.88,19,.69,28.43-.09,4.5-2.57,30.08-2.34,31.27,3.54,1.11,39-15.7,45.7-10.24,3.67,4.64-12.81,10-15.34,10.7-7.39,2.16-14.42,4.41-21.77,6.71-4.5,1.42-5.88,1.42-10.2,2.34a135,135,0,0,0-.69,23.15c.74,9.09,8.13,16.86,17.32,16.86,13.59,0,16-11.44,19.89-12.31,6.52-1.47,4.68,9.37,1.88,12.26-7.4,7.67-21,10.75-31.28,8.45-26.87-6-22.83-24.57-21.54-46.16l.55-4.82c2.16-17.5,2.71-34.22,3.35-51.76C671.4,217.11,671,211.92,671.22,206.92Z"/><path class="cls-2" d="M797.74,258.72c.18,3.63-1.61,11.07-2,15.48-.19,2.21-.33,4.46-.51,6.66-1.79,26.41-3.12,36.47-11.25,61.87-5.65,17.63-17.27,31.64-35.18,16.67-1.89-1.66-1.47-4,.09-4.64,3.21-1.15,2.21,2.8,5.6,1.74,7.17-3.39,11.26-10.93,14.43-17.91,2.15-4.87,11.57-32.15,11.57-36.33-2.76-1.7-22.73,33.85-39.5,10.8-11.85-16.26-3.21-44.74,7-59.94,6.15-8.31,17.68-9.6,27.28-8.36,13.5,2.8,14.28,10.75,9,8.54-7.49-3.17-9.56-5.14-17.41,0-7.39,7.81-12.22,19.75-14.74,30-1.47,5.83-6.71,37.06,7.94,25.31,17.64-14.2,21.54-28.85,30.45-48.32C792.6,256.15,796.78,256.15,797.74,258.72Z"/><path class="cls-2" d="M866,258.72c.19,3.63-1.61,11.07-2,15.48-.19,2.21-.32,4.46-.51,6.66-1.79,26.41-3.12,36.47-11.25,61.87-5.65,17.63-17.27,31.64-35.18,16.67-1.88-1.66-1.47-4,.09-4.64,3.22-1.15,2.21,2.8,5.6,1.74,7.17-3.39,11.26-10.93,14.43-17.91,2.15-4.87,11.57-32.15,11.57-36.33-2.75-1.7-22.73,33.85-39.5,10.8-11.85-16.26-3.21-44.74,7-59.94,6.15-8.31,17.68-9.6,27.28-8.36,13.5,2.8,14.28,10.75,9.05,8.54-7.49-3.17-9.56-5.14-17.41,0-7.39,7.81-12.22,19.75-14.74,30-1.47,5.83-6.71,37.06,7.94,25.31,17.64-14.2,21.54-28.85,30.45-48.32C860.82,256.15,865,256.15,866,258.72Z"/><path class="cls-1" d="M655.51,24.09l10.91.93c2.81.24,5.61.58,8.42.66a24.62,24.62,0,0,0,5-.53,4.7,4.7,0,0,0,3.05-2,14.19,14.19,0,0,1,9.27-5.73c5.51-1.16,10.92-.5,16.28,1a32.86,32.86,0,0,1,11.19,5.66,15.37,15.37,0,0,1,6.17,10.31,17.32,17.32,0,0,1-2,10.81c-.86,1.59-1.94,3.06-2.86,4.63a46.38,46.38,0,0,0-2.5,4.66,8.42,8.42,0,0,0,1.51,9.34c1.44,1.72,2.84,3.49,4.13,5.32a29.36,29.36,0,0,1,4.86,10.46,14.26,14.26,0,0,1,0,6.53c-1.08,4.58-6.75,10-13.8,8.32-2.23-.53-4.45-1.08-6.66-1.68-6.84-1.87-12.83-.26-18.18,4.24-1.57,1.32-3.14,2.65-4.82,3.83a17,17,0,0,1-8.53,3.07A17.4,17.4,0,0,1,670,103c-1.94-.66-3.84-1.46-5.76-2.19-1.25-.47-2.49-1-3.76-1.37a10.25,10.25,0,0,0-6.2,0,58.58,58.58,0,0,1-6.58,1.35,11.3,11.3,0,0,1-9.07-2.65,7.73,7.73,0,0,1-2.48-3.79c-.56-1.67-1-3.4-1.49-5.08a35.79,35.79,0,0,0-1.27-3.65,10.39,10.39,0,0,0-4.38-5,47.74,47.74,0,0,1-5.81-3.93,21.87,21.87,0,0,1-3.8-4.06,10.22,10.22,0,0,1-1.24-10,19.36,19.36,0,0,1,3.33-5.82c2-2.42,4.16-4.74,6.24-7.11,1.3-1.47,2.62-2.91,3.86-4.42a9.5,9.5,0,0,0,2.07-4.5,29.31,29.31,0,0,1,1.28-4.69,16.49,16.49,0,0,1,13.21-11.2C650.62,24.45,653.17,24.35,655.51,24.09Zm2.14,3.18v.26c-1.43,0-2.87-.06-4.3,0a23.83,23.83,0,0,0-3.25.49c-5.63,1.19-9.57,4.39-11.51,9.86-.55,1.57-.83,3.23-1.32,4.83A16.5,16.5,0,0,1,636,46a19.61,19.61,0,0,1-2.39,3.22c-2.62,3-5.34,5.86-8,8.85a20.45,20.45,0,0,0-3.81,6.19,8.3,8.3,0,0,0,1.06,8.29,14.78,14.78,0,0,0,2.81,3,54.14,54.14,0,0,0,5.79,3.94,13.3,13.3,0,0,1,6,7.27c.59,1.66,1,3.4,1.51,5.08.47,1.44,1,2.86,1.62,4.26a2,2,0,0,0,1.9,1.31,19.3,19.3,0,0,0,3.56.06c2.21-.34,4.4-.85,6.58-1.38a9.91,9.91,0,0,1,5-.21c1.75.44,3.49,1,5.19,1.58,2,.72,4,1.61,6,2.32a15.37,15.37,0,0,0,6.63.87,16.32,16.32,0,0,0,8.35-3.47c1.18-.89,2.29-1.88,3.42-2.84,5.88-5,12.5-6.76,20-4.76,2.17.57,4.33,1.17,6.52,1.65a9.64,9.64,0,0,0,11.42-6.67,11.29,11.29,0,0,0,0-5.54,25.28,25.28,0,0,0-4-8.84c-1.43-2.08-3-4.09-4.6-6a10.58,10.58,0,0,1-2-11.11,25.45,25.45,0,0,1,1.71-3.62c.79-1.41,1.78-2.72,2.59-4.12a28.44,28.44,0,0,0,2.22-4.32c3.22-8.68-1.57-15.63-7.73-18.14a34,34,0,0,0-17.64-2.65c-3.93.53-7.37,1.95-9.71,5.39A5.86,5.86,0,0,1,682.57,28a19.93,19.93,0,0,1-4.93.77c-3.28,0-6.57-.38-9.86-.64S661,27.57,657.65,27.27Z"/><path class="cls-2" d="M674.5,42.41a23.68,23.68,0,0,1,19,10.36,16.57,16.57,0,0,1-2.86,22.4c-7.81,6.61-16.6,7.16-25.75,3.16a21.33,21.33,0,0,1-10.23-9.07,17,17,0,0,1,4.14-21.83C663.11,44,668,42.46,674.5,42.41Zm17.26,20.93c-.31-5.24-2.88-9.65-7-13.28a2.09,2.09,0,0,0-.61-.36,1.21,1.21,0,0,0-1.43.37,1,1,0,0,0,0,1.32c.22.32.47.61.69.92,1.14,1.64,2.4,3.22,3.41,4.95a11.75,11.75,0,0,1,1.65,8.79,12.44,12.44,0,0,1-3.23,5.82c-.89.93-1.86,1.79-2.81,2.66a1,1,0,0,0-.31,1.39,1.16,1.16,0,0,0,1.46.58,2.34,2.34,0,0,0,.88-.47,43.1,43.1,0,0,0,4.1-3.76A13.87,13.87,0,0,0,691.76,63.34Z"/><path class="cls-1" d="M715.94,44.72c0-.88,0-1.66,0-2.44.09-1.48.24-3,.34-4.43a10.92,10.92,0,0,0-2.79-8,25.57,25.57,0,0,0-7.12-5.68l-1.1-.66s0-.08,0-.12c3-.57,8.76,3,11.2,6.73S718.63,40,715.94,44.72Z"/><path class="cls-1" d="M641.19,48.54c-1.72-3.36-.46-10.55,2.29-13.77,3-3.5,9.59-5.79,13.41-4.54-.53.16-.92.29-1.32.4a28.69,28.69,0,0,0-7.24,3c-3.31,2-5.54,4.76-6.07,8.72C642,44.37,641.56,46.38,641.19,48.54Z"/><path class="cls-1" d="M637.41,79.92c.28.36.57.7.82,1.08.8,1.18,1.61,2.36,2.36,3.58a10.62,10.62,0,0,0,7.86,4.89,25.69,25.69,0,0,0,7.83-.17c.23,0,.46-.08.78-.14-1.95,2.16-7.86,3-11.69,1.61-5-1.82-6.89-6-8.2-10.66Z"/><path class="cls-1" d="M712.15,69.6c7.73,1.79,10.34,11.06,4.84,17.52.17-.78.26-1.29.39-1.8.26-1,.5-2,.82-3a8.42,8.42,0,0,0-1-7.12,19.69,19.69,0,0,0-4-4.63Z"/><path class="cls-1" d="M679.84,39a14.41,14.41,0,0,1,7.92.57C691.65,41,694,44.18,694,47.94a5.51,5.51,0,0,1-.09.61c-.26-.37-.46-.61-.61-.86-.25-.41-.47-.83-.7-1.25a12.32,12.32,0,0,0-8.11-6.31c-1.34-.34-2.7-.62-4-.94C680.26,39.14,680.05,39.05,679.84,39Z"/></svg>