<svg id="Layer_1" data-name="Layer 1" xmlns="http://www.w3.org/2000/svg" viewBox="0 0 1000 1000"><defs><style>.cls-1{fill:#fff;}.cls-2{fill:#fdc831;}</style></defs><path class="cls-1" d="M658.44,172.54V187.2c-22.88,11.08-47.9,37.89-77.93,97.24L512.59,419.21V614c0,53.26,8.22,60.77,51.83,62.91v14.66c-28.24-1.43-80.43-2.14-125.84-2.14-49.69,0-100.09.71-126.54,2.14V677c44.68-2.14,51.83-9.65,51.83-62.91V479.27L228.38,229c-16.8-30.74-32.17-41.1-42.18-41.1V172.54c30,2.86,61.49,4.29,100.81,4.29,49.69,0,112.25-2.14,161.23-4.29v15.38c-30.75,0-59,.35-59,16.8,0,2.86,1.07,6.79,3.22,11.08L496.86,416.7l33.24-66.13c24.31-48.62,34.68-84,34.68-109,0-38.25-23.6-52.91-58.63-54.34V172.54c36.46,1.43,62.2,2.15,95.81,2.15C620.9,174.69,643.78,174,658.44,172.54Z"/><path class="cls-2" d="M599.78,390.65c.84-16.35-1-31.18-.5-46.87.5-13,12.64-16.69,23.94-13,25.79,8.26,53.77,4.72,80.41,3.88,23.94-.68,29.66-3.71,51.58-6.74,10.45-1.52,25.62-4.72,25.62,8.25-5.73,18-31.69,23.44-48.05,24.28-28.15,1.86-53.43,11.3-82.43,14.33,0,6.07-.17,12.14-.17,18.21-.5,35.73,3.2,69.78,2.53,104.34-.33,16.52-9.44,110.42-8.59,114.8,13,4.05,143.29-57.65,167.73-37.59,13.48,17-47,36.58-56.31,39.28-27.14,7.92-52.93,16.19-79.9,24.61-16.52,5.23-21.58,5.23-37.43,8.6-2.86,25.29-4.55,60-2.52,85,2.69,33.38,29.83,61.87,63.55,61.87,49.9-.17,58.66-42,73-45.18,23.94-5.4,17.19,34.39,6.91,45-27.14,28.15-77,39.45-114.8,31-98.62-22.08-83.78-90.19-79.06-169.42l2-17.7c7.92-64.23,9.94-125.59,12.3-190C600.45,428.07,598.93,409,599.78,390.65Z"/></svg>